#!OML:ASF H:\Pregnant\Project 1\Capture day 1\Session 1\femalepreg.ASF
:FULLY-SPECIFIED
:DEGREES
438
root -0.639829 16.1781 -19.2431 18.84 -5.93045 -0.832303
lowerback -13.4035 0.256215 8.68701
upperback -7.0391 -0.744876 3.30831
thorax -0.0152137 -0.557447 -1.51117
lowerneck -17.331 5.69993 6.08234
upperneck 24.4593 9.61863 -11.7313
head 11.7941 3.49547 -3.87954
rclavicle 5.1684e-015 2.38542e-014
rhumerus -45.6157 1.78167 -74.3622
rradius 24.1928
rwrist -11.5782
rhand -20.9896 -24.0863
rfingers 7.12502
rthumb 5.38442 -53.9979
lclavicle 5.1684e-015 2.38542e-014
lhumerus -38.9746 -5.17012 78.6838
lradius 32.1869
lwrist 48.3728
lhand -29.4313 -2.82503
lfingers 7.12502
lthumb -2.76825 27.1367
rfemur -40.7254 14.9405 18.6937
rtibia 36.5443
rfoot -10.6574 -8.38077
rtoes -14.1443
lfemur -20.7498 -5.90321 -23.3229
ltibia 36.6075
lfoot -11.848 -2.17516
ltoes -26.0165
439
root -0.635979 16.1814 -19.3047 18.978 -5.78569 -1.06137
lowerback -13.6386 0.0364222 8.30911
upperback -7.00959 -1.02241 3.43097
thorax 0.133028 -0.678487 -1.21228
lowerneck -17.3393 5.74976 6.32395
upperneck 24.3103 9.58625 -11.6914
head 11.7442 3.51184 -3.9068
rclavicle 2.4202e-014 1.59028e-014
rhumerus -45.967 1.97154 -74.2012
rradius 24.4422
rwrist -11.833
rhand -20.6371 -23.7803
rfingers 7.12502
rthumb 5.72473 -53.683
lclavicle 2.4202e-014 1.59028e-014
lhumerus -38.3845 -5.14461 78.7061
lradius 32.0952
lwrist 48.6444
lhand -29.2444 -3.2021
lfingers 7.12502
lthumb -2.58776 26.7619
rfemur -40.9156 14.9437 18.8589
rtibia 36.2159
rfoot -10.3388 -8.34087
rtoes -13.8693
lfemur -19.8233 -6.22981 -23.0798
ltibia 34.6172
lfoot -12.6473 -1.44227
ltoes -26.4
440
root -0.631939 16.1855 -19.367 19.1071 -5.6149 -1.29122
lowerback -13.8659 -0.194449 7.91011
upperback -6.97279 -1.30989 3.55978
thorax 0.28911 -0.804143 -0.89814
lowerneck -17.3238 5.78757 6.54817
upperneck 24.1461 9.53324 -11.6247
head 11.6788 3.52153 -3.9243
rclavicle 2.41275e-014 1.11319e-014
rhumerus -46.2793 2.12085 -74.0109
rradius 24.6761
rwrist -12.0442
rhand -20.3113 -23.4949
rfingers 7.12502
rthumb 6.03925 -53.3888
lclavicle 2.41275e-014 1.11319e-014
lhumerus -37.7669 -5.15441 78.7743
lradius 31.9598
lwrist 48.8293
lhand -29.0141 -3.54154
lfingers 7.12502
lthumb -2.36536 26.4251
rfemur -41.08 14.9563 19.0193
rtibia 35.86
rfoot -10.0102 -8.32989
rtoes -13.5851
lfemur -18.9583 -6.56308 -22.8254
ltibia 32.6518
lfoot -13.2999 -0.695079
ltoes -26.612
441
root -0.628031 16.1903 -19.4301 19.222 -5.39667 -1.51093
lowerback -14.067 -0.451987 7.47426
upperback -6.94922 -1.62261 3.7049
thorax 0.421841 -0.943013 -0.550807
lowerneck -17.2723 5.82641 6.77815
upperneck 23.9893 9.48314 -11.5579
head 11.6099 3.5339 -3.94309
rclavicle 4.50496e-014 -5.40694e-014
rhumerus -46.5768 2.24134 -73.7721
rradius 24.8864
rwrist -12.1877
rhand -20.016 -23.2597
rfingers 7.12502
rthumb 6.32434 -53.1452
lclavicle 4.50496e-014 -5.40694e-014
lhumerus -37.1592 -5.18596 78.8973
lradius 31.7776
lwrist 48.9241
lhand -28.8669 -3.73642
lfingers 7.12502
lthumb -2.22321 26.2317
rfemur -41.2181 14.9743 19.1646
rtibia 35.4901
rfoot -9.67695 -8.36875
rtoes -13.3005
lfemur -18.1702 -6.9199 -22.5616
ltibia 30.7685
lfoot -13.7955 -0.00597105
ltoes -26.6251
442
root -0.624225 16.1951 -19.4946 19.3244 -5.13305 -1.71506
lowerback -14.24 -0.733914 6.99996
upperback -6.9383 -1.95743 3.86294
thorax 0.532548 -1.09341 -0.172336
lowerneck -17.2285 5.88473 7.05628
upperneck 23.8582 9.45751 -11.5149
head 11.5593 3.55769 -3.97569
rclavicle -2.38542e-015 -3.02153e-014
rhumerus -46.8583 2.32324 -73.4837
rradius 25.0764
rwrist -12.2614
rhand -19.7639 -23.0591
rfingers 7.12502
rthumb 6.56775 -52.9373
lclavicle -2.38542e-015 -3.02153e-014
lhumerus -36.5542 -5.24711 79.0752
lradius 31.5502
lwrist 48.9269
lhand -28.8459 -3.75559
lfingers 7.12502
lthumb -2.20285 26.2128
rfemur -41.3433 14.9955 19.286
rtibia 35.1209
rfoot -9.31336 -8.45801
rtoes -13.1711
lfemur -17.4703 -7.30048 -22.2937
ltibia 29.0111
lfoot -14.1621 0.632765
ltoes -26.4571
443
root -0.620746 16.1999 -19.5607 19.4171 -4.8281 -1.90024
lowerback -14.3841 -1.02681 6.49441
upperback -6.93043 -2.29794 4.01369
thorax 0.631901 -1.24705 0.214452
lowerneck -17.1897 5.92735 7.31271
upperneck 23.737 9.40602 -11.4328
head 11.5072 3.57174 -3.99429
rclavicle -9.52924e-015 -6.36111e-015
rhumerus -47.1234 2.32649 -73.163
rradius 25.2609
rwrist -12.2794
rhand -19.5688 -22.8859
rfingers 7.12502
rthumb 6.75607 -52.7581
lclavicle -9.52924e-015 -6.36111e-015
lhumerus -35.917 -5.37687 79.294
lradius 31.2809
lwrist 48.8401
lhand -29.0652 -3.49716
lfingers 7.12502
lthumb -2.41467 26.4689
rfemur -41.4656 15.0174 19.3782
rtibia 34.7632
rfoot -8.94278 -8.60445
rtoes -13.1613
lfemur -16.8763 -7.70346 -22.023
ltibia 27.4109
lfoot -14.4342 1.20413
ltoes -26.0202
444
root -0.617523 16.2047 -19.6284 19.5086 -4.4927 -2.06505
lowerback -14.5118 -1.32209 5.96345
upperback -6.92072 -2.63517 4.14771
thorax 0.731818 -1.39935 0.59752
lowerneck -17.1609 5.95229 7.55402
upperneck 23.6178 9.32298 -11.3123
head 11.4512 3.57399 -4.00097
rclavicle -1.37783e-014 -3.18055e-015
rhumerus -47.364 2.22261 -72.808
rradius 25.4344
rwrist -12.2284
rhand -19.4268 -22.7381
rfingers 7.12502
rthumb 6.89318 -52.6059
lclavicle -1.37783e-014 -3.18055e-015
lhumerus -35.2449 -5.59216 79.5457
lradius 30.994
lwrist 48.6778
lhand -29.1894 -3.23185
lfingers 7.12502
lthumb -2.53467 26.7328
rfemur -41.6018 15.0355 19.4377
rtibia 34.4267
rfoot -8.58302 -8.80952
rtoes -13.2816
lfemur -16.4086 -8.1135 -21.7549
ltibia 25.9798
lfoot -14.6333 1.70545
ltoes -25.5002
445
root -0.61456 16.2092 -19.6979 19.6065 -4.13915 -2.20902
lowerback -14.6217 -1.61487 5.4061
upperback -6.9124 -2.96238 4.26367
thorax 0.828207 -1.54715 0.977302
lowerneck -17.1359 5.95272 7.76725
upperneck 23.4984 9.20161 -11.1502
head 11.3877 3.56078 -3.99354
rclavicle -1.66482e-015 -3.18055e-015
rhumerus -47.5914 2.02711 -72.4342
rradius 25.6131
rwrist -12.1385
rhand -19.3418 -22.6353
rfingers 7.12502
rthumb 6.97522 -52.5003
lclavicle -1.66482e-015 -3.18055e-015
lhumerus -34.5504 -5.89502 79.8277
lradius 30.7145
lwrist 48.4471
lhand -29.1898 -2.94886
lfingers 7.12502
lthumb -2.53506 27.0158
rfemur -41.765 15.0486 19.461
rtibia 34.1156
rfoot -8.25951 -9.07718
rtoes -13.5206
lfemur -16.076 -8.5204 -21.4906
ltibia 24.717
lfoot -14.7693 2.12743
ltoes -24.9744
446
root -0.611694 16.2134 -19.7692 19.7158 -3.77561 -2.33148
lowerback -14.7236 -1.89806 4.82913
upperback -6.89512 -3.2725 4.35426
thorax 0.936236 -1.68676 1.34299
lowerneck -17.1171 5.91512 7.90928
upperneck 23.3655 9.02335 -10.91
head 11.3059 3.52424 -3.95362
rclavicle 1.23868e-014 -4.29375e-014
rhumerus -47.791 1.72268 -72.047
rradius 25.7968
rwrist -12.0171
rhand -19.3146 -22.5758
rfingers 7.12502
rthumb 7.00145 -52.44
lclavicle 1.23868e-014 -4.29375e-014
lhumerus -33.8195 -6.29427 80.1294
lradius 30.4509
lwrist 48.1579
lhand -29.0969 -2.61729
lfingers 7.12502
lthumb -2.44528 27.3484
rfemur -41.9629 15.0485 19.4485
rtibia 33.8331
rfoot -8.01597 -9.39887
rtoes -13.8315
lfemur -15.8701 -8.92048 -21.2309
ltibia 23.6082
lfoot -14.8528 2.47247
ltoes -24.5095
447
root -0.608835 16.2176 -19.8421 19.8393 -3.40642 -2.43126
lowerback -14.8153 -2.17227 4.23305
upperback -6.87822 -3.5657 4.42087
thorax 1.04418 -1.81868 1.69621
lowerneck -17.1056 5.85636 8.03211
upperneck 23.2333 8.81072 -10.6324
head 11.2196 3.47412 -3.90214
rclavicle 2.8917e-014 -6.67916e-014
rhumerus -47.977 1.30396 -71.6336
rradius 25.9705
rwrist -11.8553
rhand -19.3473 -22.5391
rfingers 7.12502
rthumb 6.96994 -52.4044
lclavicle 2.8917e-014 -6.67916e-014
lhumerus -33.0801 -6.78138 80.4467
lradius 30.2189
lwrist 47.8256
lhand -28.9146 -2.22728
lfingers 7.12502
lthumb -2.26925 27.7404
rfemur -42.1987 15.0119 19.4102
rtibia 33.5771
rfoot -7.87874 -9.75493
rtoes -14.2133
lfemur -15.7781 -9.30468 -20.9764
ltibia 22.6372
lfoot -14.898 2.73352
ltoes -24.1328
448
root -0.606029 16.222 -19.9168 19.9749 -3.03652 -2.50446
lowerback -14.8905 -2.4392 3.60986
upperback -6.86108 -3.84304 4.46772
thorax 1.14951 -1.94323 2.04616
lowerneck -17.1153 5.78127 8.13498
upperneck 23.1062 8.5717 -10.3211
head 11.1346 3.41297 -3.83894
rclavicle 2.16178e-015 -2.46493e-014
rhumerus -48.1492 0.782092 -71.1914
rradius 26.1377
rwrist -11.6684
rhand -19.4368 -22.5041
rfingers 7.12502
rthumb 6.88354 -52.3721
lclavicle 2.16178e-015 -2.46493e-014
lhumerus -32.3251 -7.34005 80.7784
lradius 30.0045
lwrist 47.46
lhand -28.5916 -1.95396
lfingers 7.12502
lthumb -1.9573 28.0168
rfemur -42.4702 14.9361 19.3452
rtibia 33.3451
rfoot -7.85778 -10.139
rtoes -14.6662
lfemur -15.783 -9.66099 -20.735
ltibia 21.7851
lfoot -14.9086 2.91247
ltoes -23.9335
